<?xml version="1.0" encoding="iso-8859-1"?>
<!-- Generator: Adobe Illustrator 19.0.0, SVG Export Plug-In . SVG Version: 6.00 Build 0)  -->
<svg version="1.1" id="Capa_1" xmlns="http://www.w3.org/2000/svg" xmlns:xlink="http://www.w3.org/1999/xlink" x="0px" y="0px"
	 viewBox="0 0 512 512" style="enable-background:new 0 0 512 512;" xml:space="preserve">
<path style="fill:#5A5A5A;" d="M409.818,406.926C385.642,468.649,325.577,512,256,512c-69.538,0-129.627-43.314-153.818-105.074
	L256,376.905L409.818,406.926z"/>
<path style="fill:#444444;" d="M256,376.905l-0.07,0.014V512c0.023,0,0.047,0,0.07,0c69.577,0,129.642-43.351,153.818-105.074
	L256,376.905z"/>
<path style="fill:#25D9F8;" d="M421.116,346.884c0,20.65-3.811,40.939-11.298,60.042H102.182
	c-7.475-19.073-11.298-39.36-11.298-60.042c0-21.103,4.357-43.022,11.158-60.042l153.903-30.021l153.903,30.021
	C417.162,305.625,421.116,325.992,421.116,346.884z"/>
<path style="fill:#00C0F1;" d="M255.93,256.824v150.103h153.888c7.487-19.103,11.298-39.392,11.298-60.042
	c0-20.891-3.954-41.259-11.268-60.042l-153.903-30.021L255.93,256.824z"/>
<path style="fill:#FF3997;" d="M409.848,286.842c-17.092,0-290.714,0-307.806,0c6.118-15.391,19.2-37.772,64.005-120.084
	l90.088-30.021l90.088,30.021C404.769,275.354,404.296,272.631,409.848,286.842z"/>
<path style="fill:#D20763;" d="M255.93,286.842c72.684,0,145.371,0,153.918,0c-5.552-14.211-5.08-11.488-63.625-120.084
	l-90.088-30.021l-0.205,0.068L255.93,286.842L255.93,286.842z"/>
<path style="fill:#FFD400;" d="M346.223,166.757H166.047c19.033-34.955,44.071-81.197,76.724-142.18L255.93,0L346.223,166.757z"/>
<polygon style="fill:#FF9F00;" points="346.223,166.757 255.93,0 255.93,166.757 "/>
<g>
</g>
<g>
</g>
<g>
</g>
<g>
</g>
<g>
</g>
<g>
</g>
<g>
</g>
<g>
</g>
<g>
</g>
<g>
</g>
<g>
</g>
<g>
</g>
<g>
</g>
<g>
</g>
<g>
</g>
</svg>
